<svg id="Layer_1" data-name="Layer 1" xmlns="http://www.w3.org/2000/svg" viewBox="0 0 1598 50"><defs><style>.cls-1{fill:#009245;opacity:0;}.cls-2{fill:#fbc600;}.cls-3,.cls-7{opacity:0.2;}.cls-4{fill:#1a1a1a;}.cls-5{fill:#f2f2f2;}.cls-6{fill:#0071bc;}</style></defs><polygon id="NUM" class="cls-1" points="220 50 94 50 119 0 245 0 220 50"/><polygon id="_Rectangle_" data-name="&lt;Rectangle&gt;" class="cls-2" points="219.5 50 93.5 50 118.5 0 244.5 0 219.5 50"/><polygon id="CLS" class="cls-3" points="219.69 50 77 50 105.31 25 248 25 219.69 50"/><rect class="cls-4" x="340" width="560" height="50"/><rect class="cls-4" x="900" width="583" height="50"/><polygon id="_Rectangle_2" data-name="&lt;Rectangle&gt;" class="cls-4" points="353.09 50 227.09 50 252.09 0 378.09 0 353.09 50"/><path id="PTS" class="cls-5" d="M1480.16,1H1589a10,10,0,0,1,8.93,14.45l-15,30A10,10,0,0,1,1574,51H1455.16Z" transform="translate(-1 -1)"/><path id="POS" class="cls-6" d="M95,51H11a10,10,0,0,1-9-14.48l15-30a10,10,0,0,1,9-5.53h94Z" transform="translate(-1 -1)"/><polygon class="cls-6" points="1479 0 1469 0 1444 50 1454 50 1479 0"/><polygon class="cls-6" points="884 0 874 0 849 50 859 50 884 0"/><polygon class="cls-6" points="254 0 244 0 219 50 229 50 254 0"/><g class="cls-7"><path d="M2.07,36.52A10,10,0,0,0,11,51H94.83l12.5-25H7.33ZM232.5,26,220,51H1574a10,10,0,0,0,8.93-5.52L1592.66,26Z" transform="translate(-1 -1)"/></g></svg>