<?xml version="1.0" encoding="utf-8"?>
<!-- Generator: Adobe Illustrator 25.0.1, SVG Export Plug-In . SVG Version: 6.00 Build 0)  -->
<svg version="1.1" id="Layer_1" xmlns="http://www.w3.org/2000/svg" xmlns:xlink="http://www.w3.org/1999/xlink" x="0px" y="0px"
	 viewBox="0 0 1540 50" style="enable-background:new 0 0 1540 50;" xml:space="preserve">
<style type="text/css">
	.st0{fill:#0071BC;}
	.st1{display:none;fill:#FBC600;}
	.st2{display:none;fill:#C1272D;}
	.st3{display:none;fill:#808080;}
	.st4{fill:#F2F2F2;}
	.st5{display:none;}
	.st6{display:inline;}
	.st7{display:inline;clip-path:url(#SVGID_1_);}
	.st8{fill:#DD0000;}
	.st9{fill:#FFCE00;}
	.st10{fill:#1A1A1A;}
	.st11{opacity:0.15;}
	.st12{display:inline;fill:#F2F2F2;}
	.st13{display:inline;fill:#1A1A1A;}
	.st14{display:none;fill:#F2F2F2;}
	.st15{font-family:'SegoeUI';}
	.st16{font-size:36px;}
</style>
<polygon id="POS" class="st0" points="100,50 0,50 25,0 125,0 "/>
<polygon id="ROOKIE_CLASS" class="st1" points="225,50 100,50 125,0 250,0 "/>
<polygon id="AM_CLASS" class="st2" points="225,50 100,50 125,0 250,0 "/>
<polygon id="SILVER_CLASS" class="st3" points="225,50 100,50 125,0 250,0 "/>
<polygon id="PRO_CLASS" class="st4" points="225,50 100,50 125,0 250,0 "/>
<polygon id="DIV1" class="st0" points="235,50 225,50 250,0 260,0 "/>
<g id="NATIONALITY" class="st5">
	<defs>
		<polygon id="SVGID_3_" points="310,50 235,50 260,0 335,0 		"/>
	</defs>
	<clipPath id="SVGID_1_" class="st6">
		<use xlink:href="#SVGID_3_"  style="overflow:visible;"/>
	</clipPath>
	<g class="st7">
		<rect id="black_stripe_1_" x="235" width="100" height="50"/>
		<rect id="red_stripe_1_" x="235" y="16.7" class="st8" width="100" height="33.3"/>
		<rect id="gold_stripe_1_" x="235" y="33.3" class="st9" width="100" height="16.7"/>
	</g>
</g>
<polygon id="DIV2" class="st0" points="320,50 310,50 335,0 345,0 "/>
<polygon id="NAME_x26_CAR" class="st10" points="1380,50 320,50 345,0 1405,0 "/>
<polygon id="DIV3" class="st0" points="855,50 845,50 870,0 880,0 "/>
<polygon id="DIV4" class="st0" points="1390,50 1380,50 1405,0 1415,0 "/>
<polygon id="POINTS" class="st4" points="1515,50 1390,50 1415,0 1540,0 "/>
<g id="SHADER" class="st11">
	<polygon points="0,50 235,50 247.5,25 12.5,25 	"/>
	<polygon points="322.5,25 310,50 1515,50 1527.5,25 	"/>
</g>
<g id="NAME_TEXT" class="st5">
	<path class="st12" d="M359.4,28.1c0,3-0.6,5.3-1.9,7s-3,2.5-5.1,2.5c-1,0-1.8-0.1-2.4-0.4v-2.9c0.6,0.5,1.5,0.7,2.5,0.7
		c2.7,0,4-2.3,4-6.8V11.9h3V28.1z"/>
	<path class="st12" d="M378.3,37.1h-2.9v-2.8h-0.1c-1.3,2.2-3.1,3.2-5.5,3.2c-1.8,0-3.2-0.5-4.2-1.4s-1.5-2.2-1.5-3.8
		c0-3.4,2-5.3,5.9-5.9l5.4-0.8c0-3.1-1.2-4.6-3.7-4.6c-2.2,0-4.1,0.7-5.9,2.2v-3c1.8-1.1,3.8-1.7,6.1-1.7c4.2,0,6.3,2.2,6.3,6.7
		V37.1z M375.4,28l-4.3,0.6c-1.3,0.2-2.3,0.5-3,1s-1,1.3-1,2.5c0,0.9,0.3,1.6,0.9,2.2s1.5,0.8,2.5,0.8c1.4,0,2.6-0.5,3.5-1.5
		s1.4-2.3,1.4-3.8V28z"/>
	<path class="st12" d="M398.7,37.1h-2.9V26.8c0-3.8-1.4-5.7-4.2-5.7c-1.4,0-2.6,0.5-3.6,1.6s-1.4,2.5-1.4,4.1v10.3h-2.9v-18h2.9v3
		h0.1c1.4-2.3,3.3-3.4,5.9-3.4c2,0,3.5,0.6,4.5,1.9s1.6,3.1,1.6,5.5V37.1z"/>
	<path class="st12" d="M444.2,11.9l-7.1,25.2h-3.5l-5.2-18.4c-0.2-0.8-0.4-1.6-0.4-2.6H428c-0.1,0.9-0.2,1.7-0.5,2.5l-5.2,18.5h-3.4
		l-7.4-25.2h3.3l5.4,19.3c0.2,0.8,0.4,1.7,0.4,2.5h0.1c0.1-0.6,0.2-1.5,0.5-2.5l5.6-19.3h2.8l5.3,19.5c0.2,0.7,0.3,1.5,0.4,2.4h0.1
		c0-0.6,0.2-1.4,0.5-2.4l5.2-19.4H444.2z"/>
	<path class="st12" d="M449.1,14.5c-0.5,0-1-0.2-1.3-0.5s-0.5-0.8-0.5-1.3s0.2-1,0.5-1.3s0.8-0.5,1.3-0.5c0.5,0,1,0.2,1.3,0.5
		s0.6,0.8,0.6,1.3c0,0.5-0.2,1-0.6,1.3S449.6,14.5,449.1,14.5z M450.5,37.1h-2.9v-18h2.9V37.1z"/>
	<path class="st12" d="M459.2,37.1h-2.9V10.4h2.9V37.1z"/>
	<path class="st12" d="M467.9,37.1H465V10.4h2.9V37.1z"/>
	<path class="st12" d="M488.2,28.8h-12.7c0,2,0.6,3.6,1.6,4.6s2.4,1.6,4.3,1.6c2,0,3.9-0.7,5.6-2v2.7c-1.6,1.1-3.7,1.7-6.3,1.7
		c-2.5,0-4.5-0.8-6-2.5s-2.2-3.9-2.2-6.9c0-2.8,0.8-5.1,2.4-6.8s3.6-2.6,5.9-2.6s4.2,0.8,5.5,2.3s1.9,3.6,1.9,6.3V28.8z M485.3,26.4
		c0-1.7-0.4-3-1.2-3.9s-1.9-1.4-3.3-1.4c-1.4,0-2.5,0.5-3.5,1.5s-1.5,2.2-1.8,3.8H485.3z"/>
	<path class="st12" d="M518.1,37.1h-2.9V26.8c0-2-0.3-3.4-0.9-4.3s-1.6-1.3-3.1-1.3c-1.2,0-2.3,0.6-3.1,1.7s-1.3,2.5-1.3,4v10.3
		h-2.9V26.4c0-3.5-1.4-5.3-4.1-5.3c-1.3,0-2.3,0.5-3.1,1.6s-1.2,2.4-1.2,4.1v10.3h-2.9v-18h2.9v2.8h0.1c1.3-2.2,3.1-3.3,5.6-3.3
		c1.2,0,2.3,0.3,3.2,1s1.5,1.6,1.9,2.7c1.3-2.5,3.3-3.7,6-3.7c4,0,5.9,2.4,5.9,7.3V37.1z"/>
	<path class="st12" d="M552.6,11.9l-9.3,25.2H540l-9.1-25.2h3.3l7,20c0.2,0.6,0.4,1.4,0.5,2.2h0.1c0.1-0.7,0.3-1.5,0.6-2.3l7.1-20
		H552.6z"/>
	<path class="st12" d="M566.1,37.1h-2.9v-2.8h-0.1c-1.3,2.2-3.1,3.2-5.5,3.2c-1.8,0-3.2-0.5-4.2-1.4s-1.5-2.2-1.5-3.8
		c0-3.4,2-5.3,5.9-5.9l5.4-0.8c0-3.1-1.2-4.6-3.7-4.6c-2.2,0-4.1,0.7-5.9,2.2v-3c1.8-1.1,3.8-1.7,6.1-1.7c4.2,0,6.3,2.2,6.3,6.7
		V37.1z M563.2,28l-4.3,0.6c-1.3,0.2-2.3,0.5-3,1s-1,1.3-1,2.5c0,0.9,0.3,1.6,0.9,2.2s1.5,0.8,2.5,0.8c1.4,0,2.6-0.5,3.5-1.5
		s1.4-2.3,1.4-3.8V28z"/>
	<path class="st12" d="M586.4,37.1h-2.9V26.8c0-3.8-1.4-5.7-4.2-5.7c-1.4,0-2.6,0.5-3.6,1.6s-1.4,2.5-1.4,4.1v10.3h-2.9v-18h2.9v3
		h0.1c1.4-2.3,3.3-3.4,5.9-3.4c2,0,3.5,0.6,4.5,1.9s1.6,3.1,1.6,5.5V37.1z"/>
	<path class="st12" d="M612.3,37.5c-3.6,0-6.4-1.2-8.6-3.5s-3.2-5.4-3.2-9.2c0-4.1,1.1-7.3,3.3-9.7s5.2-3.6,8.9-3.6
		c3.5,0,6.3,1.2,8.4,3.5s3.2,5.4,3.2,9.2c0,4.1-1.1,7.4-3.3,9.8S615.9,37.5,612.3,37.5z M612.5,14.1c-2.6,0-4.8,1-6.5,2.9
		s-2.5,4.4-2.5,7.5s0.8,5.6,2.4,7.5s3.7,2.8,6.3,2.8c2.8,0,4.9-0.9,6.5-2.7s2.4-4.3,2.4-7.6c0-3.3-0.8-5.9-2.3-7.7
		S615.2,14.1,612.5,14.1z"/>
	<path class="st12" d="M654.4,37.1h-2.9V26.8c0-2-0.3-3.4-0.9-4.3s-1.6-1.3-3.1-1.3c-1.2,0-2.3,0.6-3.1,1.7s-1.3,2.5-1.3,4v10.3
		h-2.9V26.4c0-3.5-1.4-5.3-4.1-5.3c-1.3,0-2.3,0.5-3.1,1.6s-1.2,2.4-1.2,4.1v10.3h-2.9v-18h2.9v2.8h0.1c1.3-2.2,3.1-3.3,5.6-3.3
		c1.2,0,2.3,0.3,3.2,1s1.5,1.6,1.9,2.7c1.3-2.5,3.3-3.7,6-3.7c4,0,5.9,2.4,5.9,7.3V37.1z"/>
	<path class="st12" d="M685.4,37.1h-2.9V26.8c0-2-0.3-3.4-0.9-4.3s-1.6-1.3-3.1-1.3c-1.2,0-2.3,0.6-3.1,1.7s-1.3,2.5-1.3,4v10.3
		h-2.9V26.4c0-3.5-1.4-5.3-4.1-5.3c-1.3,0-2.3,0.5-3.1,1.6s-1.2,2.4-1.2,4.1v10.3h-2.9v-18h2.9v2.8h0.1c1.3-2.2,3.1-3.3,5.6-3.3
		c1.2,0,2.3,0.3,3.2,1s1.5,1.6,1.9,2.7c1.3-2.5,3.3-3.7,6-3.7c4,0,5.9,2.4,5.9,7.3V37.1z"/>
	<path class="st12" d="M705.3,28.8h-12.7c0,2,0.6,3.6,1.6,4.6s2.4,1.6,4.3,1.6c2,0,3.9-0.7,5.6-2v2.7c-1.6,1.1-3.7,1.7-6.3,1.7
		c-2.5,0-4.5-0.8-6-2.5s-2.2-3.9-2.2-6.9c0-2.8,0.8-5.1,2.4-6.8s3.6-2.6,5.9-2.6s4.2,0.8,5.5,2.3s1.9,3.6,1.9,6.3V28.8z M702.4,26.4
		c0-1.7-0.4-3-1.2-3.9s-1.9-1.4-3.3-1.4c-1.4,0-2.5,0.5-3.5,1.5s-1.5,2.2-1.8,3.8H702.4z"/>
	<path class="st12" d="M724.6,37.1h-2.9V26.8c0-3.8-1.4-5.7-4.2-5.7c-1.4,0-2.6,0.5-3.6,1.6s-1.4,2.5-1.4,4.1v10.3h-2.9v-18h2.9v3
		h0.1c1.4-2.3,3.3-3.4,5.9-3.4c2,0,3.5,0.6,4.5,1.9s1.6,3.1,1.6,5.5V37.1z"/>
	<path class="st12" d="M740.3,37.1V11.9h7.2c2.2,0,3.9,0.5,5.2,1.6s1.9,2.5,1.9,4.2c0,1.4-0.4,2.7-1.2,3.7s-1.8,1.8-3.2,2.3v0.1
		c1.7,0.2,3.1,0.8,4.1,1.9s1.5,2.5,1.5,4.2c0,2.2-0.8,3.9-2.3,5.2s-3.5,2-5.9,2H740.3z M743.3,14.6v8.1h3c1.6,0,2.9-0.4,3.8-1.2
		s1.4-1.9,1.4-3.3c0-2.4-1.6-3.7-4.8-3.7H743.3z M743.3,25.3v9.1h4c1.7,0,3.1-0.4,4-1.2s1.4-1.9,1.4-3.4c0-3-2-4.5-6.1-4.5H743.3z"
		/>
	<path class="st12" d="M775,28.8h-12.7c0,2,0.6,3.6,1.6,4.6s2.4,1.6,4.3,1.6c2,0,3.9-0.7,5.6-2v2.7c-1.6,1.1-3.7,1.7-6.3,1.7
		c-2.5,0-4.5-0.8-6-2.5s-2.2-3.9-2.2-6.9c0-2.8,0.8-5.1,2.4-6.8s3.6-2.6,5.9-2.6s4.2,0.8,5.5,2.3s1.9,3.6,1.9,6.3V28.8z M772.1,26.4
		c0-1.7-0.4-3-1.2-3.9s-1.9-1.4-3.3-1.4c-1.4,0-2.5,0.5-3.5,1.5s-1.5,2.2-1.8,3.8H772.1z"/>
	<path class="st12" d="M788.8,22c-0.5-0.4-1.2-0.6-2.2-0.6c-1.2,0-2.3,0.6-3.1,1.7s-1.2,2.7-1.2,4.7v9.2h-2.9v-18h2.9v3.7h0.1
		c0.4-1.3,1-2.3,1.9-3s1.8-1.1,2.8-1.1c0.8,0,1.3,0.1,1.7,0.2V22z"/>
	<path class="st12" d="M807.3,35.6c0,6.6-3.2,9.9-9.5,9.9c-2.2,0-4.2-0.4-5.8-1.3v-2.9c2,1.1,4,1.7,5.8,1.7c4.4,0,6.6-2.4,6.6-7.1
		v-2h-0.1c-1.4,2.3-3.4,3.4-6.2,3.4c-2.2,0-4-0.8-5.4-2.4s-2-3.7-2-6.4c0-3.1,0.7-5.5,2.2-7.3s3.5-2.7,6-2.7c2.4,0,4.2,1,5.4,2.9
		h0.1v-2.5h2.9V35.6z M804.4,28.9v-2.7c0-1.4-0.5-2.7-1.5-3.7s-2.2-1.5-3.6-1.5c-1.8,0-3.2,0.6-4.2,1.9s-1.5,3.1-1.5,5.4
		c0,2,0.5,3.6,1.5,4.8s2.2,1.8,3.8,1.8c1.6,0,2.9-0.6,3.9-1.7S804.4,30.7,804.4,28.9z"/>
	<path class="st12" d="M827.6,28.8h-12.7c0,2,0.6,3.6,1.6,4.6s2.4,1.6,4.3,1.6c2,0,3.9-0.7,5.6-2v2.7c-1.6,1.1-3.7,1.7-6.3,1.7
		c-2.5,0-4.5-0.8-6-2.5s-2.2-3.9-2.2-6.9c0-2.8,0.8-5.1,2.4-6.8s3.6-2.6,5.9-2.6s4.2,0.8,5.5,2.3s1.9,3.6,1.9,6.3V28.8z M824.6,26.4
		c0-1.7-0.4-3-1.2-3.9s-1.9-1.4-3.3-1.4c-1.4,0-2.5,0.5-3.5,1.5s-1.5,2.2-1.8,3.8H824.6z"/>
	<path class="st12" d="M841.3,22c-0.5-0.4-1.2-0.6-2.2-0.6c-1.2,0-2.3,0.6-3.1,1.7s-1.2,2.7-1.2,4.7v9.2h-2.9v-18h2.9v3.7h0.1
		c0.4-1.3,1-2.3,1.9-3s1.8-1.1,2.8-1.1c0.8,0,1.3,0.1,1.7,0.2V22z"/>
</g>
<g id="POS_TEXT" class="st5">
	<path class="st12" d="M60.8,23.5c0,2.3-0.2,4.4-0.7,6.2s-1.1,3.3-2,4.6s-2,2.2-3.2,2.8s-2.7,1-4.3,1c-1.7,0-3.1-0.3-4.4-0.9v-2.8
		c1.4,0.8,2.9,1.2,4.5,1.2c1.1,0,2.2-0.2,3-0.7s1.7-1.2,2.3-2s1.1-2,1.4-3.3s0.5-2.8,0.5-4.5h-0.1c-1.1,2.2-3,3.3-5.6,3.3
		c-1.1,0-2.1-0.2-3-0.6s-1.7-0.9-2.3-1.6s-1.2-1.5-1.5-2.5s-0.5-2-0.5-3.2c0-1.2,0.2-2.4,0.6-3.4s1-1.9,1.7-2.7s1.6-1.3,2.6-1.7
		s2.1-0.6,3.2-0.6c1.3,0,2.4,0.3,3.4,0.8s1.8,1.3,2.5,2.2s1.2,2.2,1.5,3.6S60.8,21.6,60.8,23.5z M57.7,20.9c0-1-0.1-1.9-0.4-2.7
		s-0.6-1.5-1-2s-1-1-1.6-1.3s-1.3-0.5-2-0.5c-0.7,0-1.3,0.1-1.9,0.4s-1.1,0.7-1.6,1.2s-0.8,1.1-1,1.8s-0.4,1.4-0.4,2.2
		c0,0.9,0.1,1.7,0.4,2.4s0.6,1.3,1,1.8s1,0.9,1.6,1.1s1.3,0.4,2.1,0.4c0.7,0,1.3-0.1,1.9-0.4s1.1-0.6,1.5-1s0.8-0.9,1-1.5
		S57.7,21.6,57.7,20.9z"/>
	<path class="st12" d="M80.2,23.5c0,2.3-0.2,4.4-0.7,6.2s-1.1,3.3-2,4.6s-2,2.2-3.2,2.8s-2.7,1-4.3,1c-1.7,0-3.1-0.3-4.4-0.9v-2.8
		c1.4,0.8,2.9,1.2,4.5,1.2c1.1,0,2.2-0.2,3-0.7s1.7-1.2,2.3-2s1.1-2,1.4-3.3s0.5-2.8,0.5-4.5h-0.1c-1.1,2.2-3,3.3-5.6,3.3
		c-1.1,0-2.1-0.2-3-0.6s-1.7-0.9-2.3-1.6s-1.2-1.5-1.5-2.5s-0.5-2-0.5-3.2c0-1.2,0.2-2.4,0.6-3.4s1-1.9,1.7-2.7s1.6-1.3,2.6-1.7
		s2.1-0.6,3.2-0.6c1.3,0,2.4,0.3,3.4,0.8s1.8,1.3,2.5,2.2s1.2,2.2,1.5,3.6S80.2,21.6,80.2,23.5z M77.1,20.9c0-1-0.1-1.9-0.4-2.7
		s-0.6-1.5-1-2s-1-1-1.6-1.3s-1.3-0.5-2-0.5c-0.7,0-1.3,0.1-1.9,0.4S69,15.5,68.6,16s-0.8,1.1-1,1.8s-0.4,1.4-0.4,2.2
		c0,0.9,0.1,1.7,0.4,2.4s0.6,1.3,1,1.8s1,0.9,1.6,1.1s1.3,0.4,2.1,0.4c0.7,0,1.3-0.1,1.9-0.4s1.1-0.6,1.5-1s0.8-0.9,1-1.5
		S77.1,21.6,77.1,20.9z"/>
</g>
<g id="NUMBER_TEXT" class="st5">
	<path class="st12" d="M163.6,23.5c0,2.3-0.2,4.4-0.7,6.2s-1.1,3.3-2,4.6s-2,2.2-3.2,2.8s-2.7,1-4.3,1c-1.7,0-3.1-0.3-4.4-0.9v-2.8
		c1.4,0.8,2.9,1.2,4.5,1.2c1.1,0,2.2-0.2,3-0.7s1.7-1.2,2.3-2s1.1-2,1.4-3.3s0.5-2.8,0.5-4.5h-0.1c-1.1,2.2-3,3.3-5.6,3.3
		c-1.1,0-2.1-0.2-3-0.6s-1.7-0.9-2.3-1.6s-1.2-1.5-1.5-2.5s-0.5-2-0.5-3.2c0-1.2,0.2-2.4,0.6-3.4s1-1.9,1.7-2.7s1.6-1.3,2.6-1.7
		s2.1-0.6,3.2-0.6c1.3,0,2.4,0.3,3.4,0.8s1.8,1.3,2.5,2.2s1.2,2.2,1.5,3.6S163.6,21.6,163.6,23.5z M160.5,20.9c0-1-0.1-1.9-0.4-2.7
		s-0.6-1.5-1-2s-1-1-1.6-1.3s-1.3-0.5-2-0.5c-0.7,0-1.3,0.1-1.9,0.4s-1.1,0.7-1.6,1.2s-0.8,1.1-1,1.8s-0.4,1.4-0.4,2.2
		c0,0.9,0.1,1.7,0.4,2.4s0.6,1.3,1,1.8s1,0.9,1.6,1.1s1.3,0.4,2.1,0.4c0.7,0,1.3-0.1,1.9-0.4s1.1-0.6,1.5-1s0.8-0.9,1-1.5
		S160.5,21.6,160.5,20.9z"/>
	<path class="st12" d="M183,23.5c0,2.3-0.2,4.4-0.7,6.2s-1.1,3.3-2,4.6s-2,2.2-3.2,2.8s-2.7,1-4.3,1c-1.7,0-3.1-0.3-4.4-0.9v-2.8
		c1.4,0.8,2.9,1.2,4.5,1.2c1.1,0,2.2-0.2,3-0.7s1.7-1.2,2.3-2s1.1-2,1.4-3.3s0.5-2.8,0.5-4.5H180c-1.1,2.2-3,3.3-5.6,3.3
		c-1.1,0-2.1-0.2-3-0.6s-1.7-0.9-2.3-1.6s-1.2-1.5-1.5-2.5s-0.5-2-0.5-3.2c0-1.2,0.2-2.4,0.6-3.4s1-1.9,1.7-2.7s1.6-1.3,2.6-1.7
		s2.1-0.6,3.2-0.6c1.3,0,2.4,0.3,3.4,0.8s1.8,1.3,2.5,2.2s1.2,2.2,1.5,3.6S183,21.6,183,23.5z M179.9,20.9c0-1-0.1-1.9-0.4-2.7
		s-0.6-1.5-1-2s-1-1-1.6-1.3s-1.3-0.5-2-0.5c-0.7,0-1.3,0.1-1.9,0.4s-1.1,0.7-1.6,1.2s-0.8,1.1-1,1.8S170,19.2,170,20
		c0,0.9,0.1,1.7,0.4,2.4s0.6,1.3,1,1.8s1,0.9,1.6,1.1s1.3,0.4,2.1,0.4c0.7,0,1.3-0.1,1.9-0.4s1.1-0.6,1.5-1s0.8-0.9,1-1.5
		S179.9,21.6,179.9,20.9z"/>
	<path class="st12" d="M202.4,23.5c0,2.3-0.2,4.4-0.7,6.2s-1.1,3.3-2,4.6s-2,2.2-3.2,2.8s-2.7,1-4.3,1c-1.7,0-3.1-0.3-4.4-0.9v-2.8
		c1.4,0.8,2.9,1.2,4.5,1.2c1.1,0,2.2-0.2,3-0.7s1.7-1.2,2.3-2s1.1-2,1.4-3.3s0.5-2.8,0.5-4.5h-0.1c-1.1,2.2-3,3.3-5.6,3.3
		c-1.1,0-2.1-0.2-3-0.6s-1.7-0.9-2.3-1.6s-1.2-1.5-1.5-2.5s-0.5-2-0.5-3.2c0-1.2,0.2-2.4,0.6-3.4s1-1.9,1.7-2.7s1.6-1.3,2.6-1.7
		s2.1-0.6,3.2-0.6c1.3,0,2.4,0.3,3.4,0.8s1.8,1.3,2.5,2.2s1.2,2.2,1.5,3.6S202.4,21.6,202.4,23.5z M199.3,20.9c0-1-0.1-1.9-0.4-2.7
		s-0.6-1.5-1-2s-1-1-1.6-1.3s-1.3-0.5-2-0.5c-0.7,0-1.3,0.1-1.9,0.4s-1.1,0.7-1.6,1.2s-0.8,1.1-1,1.8s-0.4,1.4-0.4,2.2
		c0,0.9,0.1,1.7,0.4,2.4s0.6,1.3,1,1.8s1,0.9,1.6,1.1s1.3,0.4,2.1,0.4c0.7,0,1.3-0.1,1.9-0.4s1.1-0.6,1.5-1s0.8-0.9,1-1.5
		S199.3,21.6,199.3,20.9z"/>
</g>
<g id="CAR_TEXT" class="st5">
	<path class="st12" d="M907.4,36.9h-3.3l-2.7-7.1h-10.7l-2.5,7.1H885l9.7-25.2h3.1L907.4,36.9z M900.5,27.2l-4-10.7
		c-0.1-0.4-0.3-0.9-0.4-1.7h-0.1c-0.1,0.7-0.3,1.3-0.4,1.7l-3.9,10.7H900.5z"/>
	<path class="st12" d="M909.7,36.3v-3.1c1.6,1.2,3.3,1.7,5.2,1.7c2.5,0,3.8-0.8,3.8-2.5c0-0.5-0.1-0.9-0.3-1.2s-0.5-0.6-0.9-0.9
		s-0.8-0.5-1.3-0.7s-1-0.4-1.6-0.6c-0.8-0.3-1.5-0.6-2.1-1s-1.1-0.7-1.5-1.1s-0.7-0.9-0.9-1.4s-0.3-1.1-0.3-1.8
		c0-0.8,0.2-1.6,0.6-2.2s0.9-1.2,1.5-1.6s1.4-0.8,2.2-1s1.7-0.3,2.6-0.3c1.6,0,3,0.3,4.2,0.8v2.9c-1.3-0.9-2.8-1.3-4.6-1.3
		c-0.5,0-1,0.1-1.5,0.2s-0.8,0.3-1.1,0.5s-0.6,0.5-0.7,0.8s-0.3,0.7-0.3,1c0,0.5,0.1,0.9,0.3,1.2s0.4,0.6,0.7,0.8s0.7,0.5,1.2,0.7
		s1,0.4,1.6,0.7c0.8,0.3,1.5,0.6,2.1,0.9s1.2,0.7,1.6,1.1s0.8,0.9,1,1.4s0.4,1.2,0.4,1.9c0,0.9-0.2,1.7-0.6,2.3s-0.9,1.2-1.6,1.6
		s-1.4,0.8-2.3,1s-1.8,0.3-2.7,0.3C912.6,37.3,911,37,909.7,36.3z"/>
	<path class="st12" d="M934.4,36.7c-0.7,0.4-1.6,0.6-2.7,0.6c-3.2,0-4.7-1.8-4.7-5.3V21.4h-3.1v-2.5h3.1v-4.4l2.9-0.9v5.3h4.5v2.5
		h-4.5v10.1c0,1.2,0.2,2.1,0.6,2.6s1.1,0.8,2,0.8c0.7,0,1.4-0.2,1.9-0.6V36.7z"/>
	<path class="st12" d="M945.8,37.3c-2.7,0-4.8-0.8-6.4-2.5s-2.4-3.9-2.4-6.7c0-3,0.8-5.4,2.5-7.1s3.9-2.5,6.7-2.5
		c2.7,0,4.8,0.8,6.3,2.5s2.3,3.9,2.3,6.9c0,2.9-0.8,5.2-2.4,6.9S948.5,37.3,945.8,37.3z M946,20.9c-1.9,0-3.3,0.6-4.4,1.9
		s-1.6,3-1.6,5.2c0,2.1,0.5,3.8,1.6,5s2.5,1.8,4.4,1.8c1.9,0,3.3-0.6,4.3-1.8s1.5-2.9,1.5-5.2c0-2.3-0.5-4-1.5-5.2
		S947.8,20.9,946,20.9z"/>
	<path class="st12" d="M974.3,36.9h-2.9V26.7c0-3.8-1.4-5.7-4.2-5.7c-1.4,0-2.6,0.5-3.6,1.6s-1.4,2.5-1.4,4.1v10.3h-2.9v-18h2.9v3
		h0.1c1.4-2.3,3.3-3.4,5.9-3.4c2,0,3.5,0.6,4.5,1.9s1.6,3.1,1.6,5.5V36.9z"/>
	<path class="st12" d="M1015.6,36.9h-2.9V20c0-1.3,0.1-3,0.2-4.9h-0.1c-0.3,1.1-0.5,2-0.8,2.4l-8.6,19.4h-1.4l-8.6-19.2
		c-0.2-0.6-0.5-1.4-0.8-2.6h-0.1c0.1,1,0.1,2.7,0.1,4.9v16.9h-2.8V11.7h3.9l7.7,17.6c0.6,1.3,1,2.4,1.2,3h0.1
		c0.5-1.4,0.9-2.4,1.2-3.1l7.9-17.5h3.7V36.9z"/>
	<path class="st12" d="M1034.8,36.9h-2.9v-2.8h-0.1c-1.3,2.2-3.1,3.2-5.5,3.2c-1.8,0-3.2-0.5-4.2-1.4s-1.5-2.2-1.5-3.8
		c0-3.4,2-5.3,5.9-5.9l5.4-0.8c0-3.1-1.2-4.6-3.7-4.6c-2.2,0-4.1,0.7-5.9,2.2v-3c1.8-1.1,3.8-1.7,6.1-1.7c4.2,0,6.3,2.2,6.3,6.7
		V36.9z M1031.9,27.8l-4.3,0.6c-1.3,0.2-2.3,0.5-3,1s-1,1.3-1,2.5c0,0.9,0.3,1.6,0.9,2.2s1.5,0.8,2.5,0.8c1.4,0,2.6-0.5,3.5-1.5
		s1.4-2.3,1.4-3.8V27.8z"/>
	<path class="st12" d="M1049.6,21.8c-0.5-0.4-1.2-0.6-2.2-0.6c-1.2,0-2.3,0.6-3.1,1.7s-1.2,2.7-1.2,4.7v9.2h-2.9v-18h2.9v3.7h0.1
		c0.4-1.3,1-2.3,1.9-3s1.8-1.1,2.8-1.1c0.8,0,1.3,0.1,1.7,0.2V21.8z"/>
	<path class="st12" d="M1061.1,36.7c-0.7,0.4-1.6,0.6-2.7,0.6c-3.2,0-4.7-1.8-4.7-5.3V21.4h-3.1v-2.5h3.1v-4.4l2.9-0.9v5.3h4.5v2.5
		h-4.5v10.1c0,1.2,0.2,2.1,0.6,2.6s1.1,0.8,2,0.8c0.7,0,1.4-0.2,1.9-0.6V36.7z"/>
	<path class="st12" d="M1066.4,14.4c-0.5,0-1-0.2-1.3-0.5s-0.5-0.8-0.5-1.3s0.2-1,0.5-1.3s0.8-0.5,1.3-0.5c0.5,0,1,0.2,1.3,0.5
		s0.6,0.8,0.6,1.3c0,0.5-0.2,1-0.6,1.3S1066.9,14.4,1066.4,14.4z M1067.8,36.9h-2.9v-18h2.9V36.9z"/>
	<path class="st12" d="M1088.6,36.9h-2.9V26.7c0-3.8-1.4-5.7-4.2-5.7c-1.4,0-2.6,0.5-3.6,1.6s-1.4,2.5-1.4,4.1v10.3h-2.9v-18h2.9v3
		h0.1c1.4-2.3,3.3-3.4,5.9-3.4c2,0,3.5,0.6,4.5,1.9s1.6,3.1,1.6,5.5V36.9z"/>
	<path class="st12" d="M1123,11.7l-9.3,25.2h-3.3l-9.1-25.2h3.3l7,20c0.2,0.6,0.4,1.4,0.5,2.2h0.1c0.1-0.7,0.3-1.5,0.6-2.3l7.1-20
		H1123z"/>
	<path class="st12" d="M1136.5,36.9h-2.9v-2.8h-0.1c-1.3,2.2-3.1,3.2-5.5,3.2c-1.8,0-3.2-0.5-4.2-1.4s-1.5-2.2-1.5-3.8
		c0-3.4,2-5.3,5.9-5.9l5.4-0.8c0-3.1-1.2-4.6-3.7-4.6c-2.2,0-4.1,0.7-5.9,2.2v-3c1.8-1.1,3.8-1.7,6.1-1.7c4.2,0,6.3,2.2,6.3,6.7
		V36.9z M1133.6,27.8l-4.3,0.6c-1.3,0.2-2.3,0.5-3,1s-1,1.3-1,2.5c0,0.9,0.3,1.6,0.9,2.2s1.5,0.8,2.5,0.8c1.4,0,2.6-0.5,3.5-1.5
		s1.4-2.3,1.4-3.8V27.8z"/>
	<path class="st12" d="M1156.8,36.9h-2.9V26.7c0-3.8-1.4-5.7-4.2-5.7c-1.4,0-2.6,0.5-3.6,1.6s-1.4,2.5-1.4,4.1v10.3h-2.9v-18h2.9v3
		h0.1c1.4-2.3,3.3-3.4,5.9-3.4c2,0,3.5,0.6,4.5,1.9s1.6,3.1,1.6,5.5V36.9z"/>
	<path class="st12" d="M1170.6,36.7c-0.7,0.4-1.6,0.6-2.7,0.6c-3.2,0-4.7-1.8-4.7-5.3V21.4h-3.1v-2.5h3.1v-4.4l2.9-0.9v5.3h4.5v2.5
		h-4.5v10.1c0,1.2,0.2,2.1,0.6,2.6s1.1,0.8,2,0.8c0.7,0,1.4-0.2,1.9-0.6V36.7z"/>
	<path class="st12" d="M1187.4,36.9h-2.9v-2.8h-0.1c-1.3,2.2-3.1,3.2-5.5,3.2c-1.8,0-3.2-0.5-4.2-1.4s-1.5-2.2-1.5-3.8
		c0-3.4,2-5.3,5.9-5.9l5.4-0.8c0-3.1-1.2-4.6-3.7-4.6c-2.2,0-4.1,0.7-5.9,2.2v-3c1.8-1.1,3.8-1.7,6.1-1.7c4.2,0,6.3,2.2,6.3,6.7
		V36.9z M1184.5,27.8l-4.3,0.6c-1.3,0.2-2.3,0.5-3,1s-1,1.3-1,2.5c0,0.9,0.3,1.6,0.9,2.2s1.5,0.8,2.5,0.8c1.4,0,2.6-0.5,3.5-1.5
		s1.4-2.3,1.4-3.8V27.8z"/>
	<path class="st12" d="M1208.2,35.5c0,6.6-3.2,9.9-9.5,9.9c-2.2,0-4.2-0.4-5.8-1.3v-2.9c2,1.1,4,1.7,5.8,1.7c4.4,0,6.6-2.4,6.6-7.1
		v-2h-0.1c-1.4,2.3-3.4,3.4-6.2,3.4c-2.2,0-4-0.8-5.4-2.4s-2-3.7-2-6.4c0-3.1,0.7-5.5,2.2-7.3s3.5-2.7,6-2.7c2.4,0,4.2,1,5.4,2.9
		h0.1v-2.5h2.9V35.5z M1205.3,28.8v-2.7c0-1.4-0.5-2.7-1.5-3.7s-2.2-1.5-3.6-1.5c-1.8,0-3.2,0.6-4.2,1.9s-1.5,3.1-1.5,5.4
		c0,2,0.5,3.6,1.5,4.8s2.2,1.8,3.8,1.8c1.6,0,2.9-0.6,3.9-1.7S1205.3,30.6,1205.3,28.8z"/>
	<path class="st12" d="M1228.5,28.6h-12.7c0,2,0.6,3.6,1.6,4.6s2.4,1.6,4.3,1.6c2,0,3.9-0.7,5.6-2v2.7c-1.6,1.1-3.7,1.7-6.3,1.7
		c-2.5,0-4.5-0.8-6-2.5s-2.2-3.9-2.2-6.9c0-2.8,0.8-5.1,2.4-6.8s3.6-2.6,5.9-2.6s4.2,0.8,5.5,2.3s1.9,3.6,1.9,6.3V28.6z
		 M1225.5,26.2c0-1.7-0.4-3-1.2-3.9s-1.9-1.4-3.3-1.4c-1.4,0-2.5,0.5-3.5,1.5s-1.5,2.2-1.8,3.8H1225.5z"/>
	<path class="st12" d="M1261.8,11.7l-9.3,25.2h-3.3l-9.1-25.2h3.3l7,20c0.2,0.6,0.4,1.4,0.5,2.2h0.1c0.1-0.7,0.3-1.5,0.6-2.3l7.1-20
		H1261.8z"/>
	<path class="st12" d="M1274.8,36.9h-2.9V15.1c-0.2,0.2-0.5,0.5-1,0.8s-0.9,0.6-1.4,0.9s-1.1,0.5-1.7,0.8s-1.2,0.4-1.7,0.6v-2.9
		c0.6-0.2,1.3-0.4,2-0.7s1.4-0.6,2.1-1s1.3-0.8,1.9-1.2s1.1-0.8,1.6-1.2h1.1V36.9z"/>
	<path class="st12" d="M1295.1,18.3c0-0.8-0.1-1.4-0.4-2s-0.6-1.1-1-1.4s-0.9-0.7-1.5-0.9s-1.2-0.3-1.8-0.3c-0.6,0-1.1,0.1-1.7,0.2
		s-1.1,0.4-1.6,0.6s-1,0.6-1.5,1s-0.9,0.8-1.3,1.2v-3.1c0.8-0.8,1.7-1.4,2.7-1.8s2.2-0.6,3.7-0.6c1,0,2,0.1,2.9,0.4s1.6,0.7,2.3,1.3
		s1.2,1.3,1.5,2.1s0.6,1.8,0.6,2.9c0,1-0.1,1.9-0.3,2.7s-0.6,1.6-1,2.3s-1,1.4-1.7,2.1s-1.5,1.3-2.5,2c-1.2,0.8-2.2,1.6-2.9,2.2
		s-1.4,1.2-1.8,1.7s-0.8,1-0.9,1.6s-0.3,1.1-0.3,1.8h12.6v2.6h-15.6v-1.2c0-1.1,0.1-2,0.4-2.8s0.6-1.6,1.2-2.3s1.2-1.5,2.1-2.2
		s1.9-1.6,3.2-2.5c0.9-0.7,1.7-1.3,2.3-1.9s1.1-1.2,1.5-1.8s0.6-1.2,0.8-1.8S1295.1,19,1295.1,18.3z"/>
	<path class="st12" d="M1332.9,35.2c-2.5,1.4-5.3,2.1-8.4,2.1c-3.6,0-6.5-1.2-8.7-3.5s-3.3-5.4-3.3-9.2c0-3.9,1.2-7.1,3.7-9.6
		s5.6-3.8,9.4-3.8c2.7,0,5,0.4,6.9,1.3v3.3c-2-1.3-4.5-1.9-7.2-1.9c-2.8,0-5.1,1-6.9,2.9s-2.7,4.5-2.7,7.6c0,3.2,0.8,5.7,2.5,7.5
		s3.9,2.7,6.8,2.7c2,0,3.7-0.4,5.1-1.2v-7.1h-5.5v-2.7h8.5V35.2z"/>
	<path class="st12" d="M1352.8,14.4h-7.3v22.5h-3V14.4h-7.3v-2.7h17.5V14.4z"/>
	<path class="st12" d="M1370.2,29.8c0,1.1-0.2,2.2-0.6,3.1s-1,1.7-1.8,2.4s-1.7,1.2-2.8,1.5s-2.3,0.5-3.6,0.5
		c-2.4,0-4.3-0.5-5.7-1.4v-3.1c1.7,1.3,3.6,2,5.8,2c0.9,0,1.7-0.1,2.4-0.3s1.3-0.5,1.8-1s0.9-0.9,1.2-1.5s0.4-1.3,0.4-2
		c0-3.3-2.3-4.9-7-4.9h-2.1v-2.4h2c4.1,0,6.2-1.5,6.2-4.6c0-2.9-1.6-4.3-4.7-4.3c-1.8,0-3.5,0.6-5,1.8v-2.8c1.6-1,3.5-1.4,5.7-1.4
		c1.1,0,2,0.1,2.9,0.4s1.6,0.7,2.2,1.2s1.1,1.2,1.4,1.9s0.5,1.6,0.5,2.4c0,3.3-1.7,5.4-5,6.4v0.1c0.9,0.1,1.6,0.3,2.4,0.6
		s1.4,0.7,1.9,1.3s0.9,1.1,1.2,1.8S1370.2,28.9,1370.2,29.8z"/>
</g>
<g id="POINTS_TEXT" class="st5">
	<path class="st13" d="M1453.6,23.5c0,2.3-0.2,4.4-0.7,6.2s-1.1,3.3-2,4.6s-2,2.2-3.2,2.8s-2.7,1-4.3,1c-1.7,0-3.1-0.3-4.4-0.9v-2.8
		c1.4,0.8,2.9,1.2,4.5,1.2c1.1,0,2.2-0.2,3-0.7s1.7-1.2,2.3-2s1.1-2,1.4-3.3s0.5-2.8,0.5-4.5h-0.1c-1.1,2.2-3,3.3-5.6,3.3
		c-1.1,0-2.1-0.2-3-0.6s-1.7-0.9-2.3-1.6s-1.2-1.5-1.5-2.5s-0.5-2-0.5-3.2c0-1.2,0.2-2.4,0.6-3.4s1-1.9,1.7-2.7s1.6-1.3,2.6-1.7
		s2.1-0.6,3.2-0.6c1.3,0,2.4,0.3,3.4,0.8s1.8,1.3,2.5,2.2s1.2,2.2,1.5,3.6S1453.6,21.6,1453.6,23.5z M1450.5,20.9
		c0-1-0.1-1.9-0.4-2.7s-0.6-1.5-1-2s-1-1-1.6-1.3s-1.3-0.5-2-0.5c-0.7,0-1.3,0.1-1.9,0.4s-1.1,0.7-1.6,1.2s-0.8,1.1-1,1.8
		s-0.4,1.4-0.4,2.2c0,0.9,0.1,1.7,0.4,2.4s0.6,1.3,1,1.8s1,0.9,1.6,1.1s1.3,0.4,2.1,0.4c0.7,0,1.3-0.1,1.9-0.4s1.1-0.6,1.5-1
		s0.8-0.9,1-1.5S1450.5,21.6,1450.5,20.9z"/>
	<path class="st13" d="M1473,23.5c0,2.3-0.2,4.4-0.7,6.2s-1.1,3.3-2,4.6s-2,2.2-3.2,2.8s-2.7,1-4.3,1c-1.7,0-3.1-0.3-4.4-0.9v-2.8
		c1.4,0.8,2.9,1.2,4.5,1.2c1.1,0,2.2-0.2,3-0.7s1.7-1.2,2.3-2s1.1-2,1.4-3.3s0.5-2.8,0.5-4.5h-0.1c-1.1,2.2-3,3.3-5.6,3.3
		c-1.1,0-2.1-0.2-3-0.6s-1.7-0.9-2.3-1.6s-1.2-1.5-1.5-2.5s-0.5-2-0.5-3.2c0-1.2,0.2-2.4,0.6-3.4s1-1.9,1.7-2.7s1.6-1.3,2.6-1.7
		s2.1-0.6,3.2-0.6c1.3,0,2.4,0.3,3.4,0.8s1.8,1.3,2.5,2.2s1.2,2.2,1.5,3.6S1473,21.6,1473,23.5z M1469.9,20.9c0-1-0.1-1.9-0.4-2.7
		s-0.6-1.5-1-2s-1-1-1.6-1.3s-1.3-0.5-2-0.5c-0.7,0-1.3,0.1-1.9,0.4s-1.1,0.7-1.6,1.2s-0.8,1.1-1,1.8s-0.4,1.4-0.4,2.2
		c0,0.9,0.1,1.7,0.4,2.4s0.6,1.3,1,1.8s1,0.9,1.6,1.1s1.3,0.4,2.1,0.4c0.7,0,1.3-0.1,1.9-0.4s1.1-0.6,1.5-1s0.8-0.9,1-1.5
		S1469.9,21.6,1469.9,20.9z"/>
	<path class="st13" d="M1492.4,23.5c0,2.3-0.2,4.4-0.7,6.2s-1.1,3.3-2,4.6s-2,2.2-3.2,2.8s-2.7,1-4.3,1c-1.7,0-3.1-0.3-4.4-0.9v-2.8
		c1.4,0.8,2.9,1.2,4.5,1.2c1.1,0,2.2-0.2,3-0.7s1.7-1.2,2.3-2s1.1-2,1.4-3.3s0.5-2.8,0.5-4.5h-0.1c-1.1,2.2-3,3.3-5.6,3.3
		c-1.1,0-2.1-0.2-3-0.6s-1.7-0.9-2.3-1.6s-1.2-1.5-1.5-2.5s-0.5-2-0.5-3.2c0-1.2,0.2-2.4,0.6-3.4s1-1.9,1.7-2.7s1.6-1.3,2.6-1.7
		s2.1-0.6,3.2-0.6c1.3,0,2.4,0.3,3.4,0.8s1.8,1.3,2.5,2.2s1.2,2.2,1.5,3.6S1492.4,21.6,1492.4,23.5z M1489.3,20.9
		c0-1-0.1-1.9-0.4-2.7s-0.6-1.5-1-2s-1-1-1.6-1.3s-1.3-0.5-2-0.5c-0.7,0-1.3,0.1-1.9,0.4s-1.1,0.7-1.6,1.2s-0.8,1.1-1,1.8
		s-0.4,1.4-0.4,2.2c0,0.9,0.1,1.7,0.4,2.4s0.6,1.3,1,1.8s1,0.9,1.6,1.1s1.3,0.4,2.1,0.4c0.7,0,1.3-0.1,1.9-0.4s1.1-0.6,1.5-1
		s0.8-0.9,1-1.5S1489.3,21.6,1489.3,20.9z"/>
</g>
<text transform="matrix(1 0 0 1 350 36.9014)" class="st14 st15 st16">Fabian Schmidberger</text>
<text transform="matrix(1 0 0 1 885 36.9014)" class="st14 st15 st16">Lamborghini Huracan EVO</text>
</svg>
