<svg id="Layer_1" data-name="Layer 1" xmlns="http://www.w3.org/2000/svg" viewBox="0 0 1437.68 50"><defs><style>.cls-1{fill:#1a1a1a;}.cls-2{opacity:0.2;}</style></defs><path class="cls-1" d="M1418.83,51H16.16A10,10,0,0,1,7.23,36.54l15-30A10,10,0,0,1,31.17,1H1433.84a10,10,0,0,1,8.93,14.46l-15,30A10,10,0,0,1,1418.83,51Z" transform="translate(-6.16 -1)"/><g class="cls-2"><path d="M12.5,26,7.23,36.54A10,10,0,0,0,16.16,51H1418.83a10,10,0,0,0,8.93-5.52L1437.5,26Z" transform="translate(-6.16 -1)"/></g></svg>